<?xml version="1.0" encoding="utf-8"?>
<!-- Generator: Adobe Illustrator 16.0.0, SVG Export Plug-In . SVG Version: 6.00 Build 0)  -->
<!DOCTYPE svg PUBLIC "-//W3C//DTD SVG 1.1//EN" "http://www.w3.org/Graphics/SVG/1.1/DTD/svg11.dtd">
<svg version="1.1" id="Layer_1" xmlns="http://www.w3.org/2000/svg" xmlns:xlink="http://www.w3.org/1999/xlink" x="0px" y="0px"
	 width="492.014px" height="158.141px" viewBox="0 0 492.014 158.141" enable-background="new 0 0 492.014 158.141"
	 xml:space="preserve">
<g>
	<path fill="#1383C6" d="M148.758,129.543h4.184c1.935,0,3.333,0.286,4.2,0.849c0.864,0.567,1.294,1.458,1.294,2.677
		c0,0.826-0.208,1.503-0.634,2.056c-0.426,0.544-1.035,0.879-1.831,1.031v0.092c0.993,0.193,1.714,0.56,2.181,1.104
		c0.469,0.545,0.706,1.291,0.706,2.231c0,1.263-0.447,2.249-1.328,2.969c-0.886,0.716-2.116,1.07-3.681,1.07h-5.09V129.543z
		 M151.062,135.364h2.214c0.969,0,1.664-0.148,2.113-0.457c0.441-0.309,0.659-0.827,0.659-1.554c0-0.67-0.238-1.146-0.713-1.438
		c-0.479-0.298-1.241-0.438-2.279-0.438h-1.994V135.364z M151.062,137.226v4.462h2.445c0.966,0,1.689-0.184,2.182-0.544
		c0.494-0.374,0.739-0.961,0.739-1.756c0-0.731-0.252-1.271-0.755-1.629c-0.497-0.359-1.26-0.533-2.276-0.533H151.062z"/>
	<path fill="#1383C6" d="M171.72,143.621h-7.965v-14.078h7.965v1.949h-5.665v3.833h5.307v1.92h-5.307v4.423h5.665V143.621z"/>
	<path fill="#1383C6" d="M181.594,143.621h-2.301v-12.099h-4.14v-1.979h10.584v1.979h-4.144V143.621z"/>
	<path fill="#1383C6" d="M194.734,143.621h-2.306v-12.099h-4.139v-1.979h10.584v1.979h-4.139V143.621z"/>
	<path fill="#1383C6" d="M210.964,143.621h-7.96v-14.078h7.96v1.949h-5.662v3.833h5.312v1.92h-5.312v4.423h5.662V143.621z"/>
	<path fill="#1383C6" d="M218.284,137.995v5.626h-2.298v-14.078h3.974c1.815,0,3.164,0.343,4.037,1.017
		c0.874,0.688,1.307,1.717,1.307,3.087c0,1.759-0.911,3.001-2.735,3.751l3.975,6.224h-2.618l-3.372-5.626H218.284z M218.284,136.091
		h1.593c1.077,0,1.857-0.191,2.335-0.59c0.479-0.399,0.722-0.99,0.722-1.782s-0.259-1.362-0.778-1.709
		c-0.522-0.347-1.301-0.518-2.354-0.518h-1.518V136.091z"/>
	<path fill="#1383C6" d="M242.523,143.621h-2.308v-12.099h-4.139v-1.979h10.587v1.979h-4.14V143.621z"/>
	<path fill="#1383C6" d="M253.094,137.995v5.626h-2.3v-14.078h3.973c1.815,0,3.161,0.343,4.033,1.017
		c0.87,0.688,1.313,1.717,1.313,3.087c0,1.759-0.918,3.001-2.737,3.751l3.977,6.224h-2.619l-3.371-5.626H253.094z M253.094,136.091
		h1.594c1.07,0,1.851-0.191,2.328-0.59c0.49-0.399,0.725-0.99,0.725-1.782s-0.262-1.362-0.783-1.709
		c-0.512-0.347-1.3-0.518-2.341-0.518h-1.522V136.091z"/>
	<path fill="#1383C6" d="M274.104,143.621l-1.406-3.907h-5.385l-1.373,3.907h-2.429l5.267-14.14h2.506l5.263,14.14H274.104z
		 M272.094,137.728l-1.323-3.833c-0.095-0.251-0.229-0.655-0.396-1.211c-0.176-0.552-0.291-0.956-0.354-1.207
		c-0.182,0.78-0.429,1.648-0.764,2.582l-1.27,3.669H272.094z"/>
	<path fill="#1383C6" d="M291.833,136.448c0,2.326-0.64,4.104-1.937,5.33c-1.292,1.233-3.148,1.843-5.574,1.843h-3.941v-14.078
		h4.355c2.238,0,3.98,0.604,5.228,1.808C291.216,132.562,291.833,134.256,291.833,136.448z M289.407,136.524
		c0-3.365-1.572-5.048-4.727-5.048h-1.997v10.211h1.64C287.71,141.688,289.407,139.97,289.407,136.524z"/>
	<path fill="#1383C6" d="M304.792,143.621h-7.96v-14.078h7.96v1.949h-5.658v3.833h5.307v1.92h-5.307v4.423h5.658V143.621z"/>
	<path fill="#1383C6" d="M320.604,129.653h4.178c1.933,0,3.34,0.285,4.199,0.846c0.87,0.57,1.301,1.461,1.301,2.68
		c0,0.826-0.211,1.503-0.642,2.056c-0.423,0.544-1.03,0.879-1.827,1.031v0.091c0.99,0.191,1.713,0.561,2.184,1.105
		c0.464,0.544,0.696,1.29,0.696,2.23c0,1.26-0.443,2.25-1.323,2.969c-0.883,0.716-2.11,1.066-3.685,1.066h-5.081V129.653z
		 M322.902,135.474h2.214c0.965,0,1.668-0.148,2.109-0.46c0.447-0.305,0.664-0.822,0.664-1.55c0-0.67-0.238-1.146-0.716-1.438
		c-0.479-0.298-1.237-0.438-2.276-0.438h-1.995V135.474z M322.902,137.336v4.461h2.448c0.965,0,1.689-0.183,2.185-0.544
		c0.485-0.373,0.733-0.959,0.733-1.755c0-0.731-0.252-1.271-0.752-1.63c-0.497-0.357-1.264-0.532-2.285-0.532H322.902z"/>
	<path fill="#1383C6" d="M343.556,143.728h-7.96v-14.074h7.96v1.949h-5.665v3.833h5.31v1.919h-5.31v4.424h5.665V143.728z"/>
	<path fill="#1383C6" d="M353.437,143.728h-2.303v-12.096h-4.145v-1.979h10.591v1.979h-4.144V143.728z"/>
	<path fill="#1383C6" d="M366.569,143.728h-2.299v-12.096h-4.138v-1.979h10.579v1.979h-4.143V143.728z"/>
	<path fill="#1383C6" d="M382.802,143.728h-7.958v-14.074h7.958v1.949h-5.657v3.833h5.307v1.919h-5.307v4.424h5.657V143.728z"/>
	<path fill="#1383C6" d="M390.125,138.104v5.623h-2.303v-14.074h3.979c1.817,0,3.159,0.343,4.031,1.016
		c0.874,0.687,1.315,1.718,1.315,3.088c0,1.759-0.914,3-2.739,3.75l3.979,6.221h-2.618l-3.371-5.623H390.125z M390.125,136.201
		h1.596c1.069,0,1.847-0.194,2.333-0.591c0.48-0.398,0.722-0.99,0.722-1.781c0-0.792-0.261-1.367-0.78-1.709
		c-0.518-0.346-1.302-0.518-2.351-0.518h-1.52V136.201z"/>
	<path fill="#1383C6" d="M422.484,143.728h-2.497l-2.395-8.391c-0.102-0.361-0.225-0.895-0.379-1.588
		c-0.158-0.684-0.252-1.164-0.284-1.438c-0.067,0.414-0.169,0.947-0.313,1.602c-0.139,0.654-0.265,1.143-0.357,1.462l-2.33,8.353
		h-2.51l-1.819-7.043l-1.85-7.031h2.353l2.008,8.2c0.322,1.325,0.543,2.481,0.68,3.491c0.072-0.545,0.177-1.15,0.32-1.828
		c0.139-0.678,0.266-1.218,0.384-1.637l2.29-8.227h2.282l2.349,8.262c0.227,0.768,0.463,1.906,0.714,3.43
		c0.097-0.918,0.325-2.087,0.695-3.51l2.004-8.182h2.326L422.484,143.728z"/>
	<path fill="#1383C6" d="M442.623,136.677c0,2.289-0.569,4.078-1.719,5.346c-1.142,1.271-2.766,1.899-4.871,1.899
		c-2.122,0-3.753-0.616-4.892-1.889c-1.143-1.264-1.713-3.054-1.713-5.38c0-2.325,0.574-4.107,1.723-5.352
		c1.144-1.245,2.779-1.869,4.9-1.869c2.103,0,3.715,0.633,4.858,1.896C442.053,132.596,442.623,134.378,442.623,136.677z
		 M431.875,136.677c0,1.729,0.349,3.05,1.049,3.949c0.697,0.886,1.738,1.335,3.108,1.335s2.404-0.445,3.103-1.329
		c0.689-0.887,1.042-2.203,1.042-3.955c0-1.721-0.347-3.042-1.036-3.928c-0.688-0.891-1.715-1.341-3.09-1.341
		c-1.378,0-2.417,0.45-3.117,1.341C432.228,133.635,431.875,134.956,431.875,136.677z"/>
	<path fill="#1383C6" d="M449.922,138.104v5.623h-2.303v-14.074h3.975c1.823,0,3.163,0.343,4.037,1.016
		c0.873,0.687,1.309,1.718,1.309,3.088c0,1.759-0.909,3-2.734,3.75l3.979,6.221h-2.621l-3.369-5.623H449.922z M449.922,136.201
		h1.594c1.076,0,1.854-0.194,2.335-0.591c0.478-0.398,0.724-0.99,0.724-1.781c0-0.792-0.265-1.367-0.782-1.709
		c-0.522-0.346-1.3-0.518-2.351-0.518h-1.52V136.201z"/>
	<path fill="#1383C6" d="M462.2,143.728v-14.074h2.302v12.105h5.958v1.969H462.2z"/>
	<path fill="#1383C6" d="M486.313,136.56c0,2.326-0.645,4.1-1.938,5.329c-1.294,1.229-3.146,1.839-5.583,1.839h-3.927v-14.074h4.348
		c2.238,0,3.98,0.604,5.229,1.809C485.685,132.672,486.313,134.366,486.313,136.56z M483.886,136.636
		c0-3.366-1.58-5.049-4.726-5.049h-2v10.21h1.632C482.184,141.797,483.886,140.081,483.886,136.636z"/>
	<path fill="#1383C6" d="M489.153,142.528c0-0.463,0.118-0.826,0.363-1.074c0.248-0.247,0.6-0.38,1.063-0.38
		c0.467,0,0.826,0.133,1.063,0.388c0.245,0.264,0.373,0.613,0.373,1.066c0,0.461-0.128,0.814-0.375,1.084
		c-0.248,0.268-0.6,0.4-1.061,0.4c-0.463,0-0.814-0.133-1.063-0.392C489.271,143.354,489.153,142.993,489.153,142.528z"/>
	<path fill="#1383C6" d="M308.22,142.62c0-0.469,0.118-0.83,0.363-1.078c0.248-0.247,0.6-0.38,1.063-0.38
		c0.466,0,0.826,0.133,1.062,0.388c0.246,0.263,0.374,0.617,0.374,1.07c0,0.456-0.128,0.814-0.375,1.085
		c-0.247,0.267-0.6,0.396-1.061,0.396c-0.463,0-0.814-0.129-1.063-0.393C308.338,143.442,308.22,143.08,308.22,142.62z"/>
</g>
<g>
	<g>
		
			<linearGradient id="SVGID_1_" gradientUnits="userSpaceOnUse" x1="1663.8755" y1="1087.2305" x2="1723.2925" y2="1191.3003" gradientTransform="matrix(-1 0 0 -1 1762.0889 1231.9316)">
			<stop  offset="0.25" style="stop-color:#0C6DB6"/>
			<stop  offset="0.75" style="stop-color:#234087"/>
		</linearGradient>
		<polygon fill="url(#SVGID_1_)" points="45.156,158.141 76.337,158.141 31.177,79.066 76.337,0 45.156,0 0,79.066 		"/>
		
			<linearGradient id="SVGID_2_" gradientUnits="userSpaceOnUse" x1="23.2817" y1="1087.2295" x2="82.6995" y2="1191.3007" gradientTransform="matrix(1 0 0 -1 0 1231.9316)">
			<stop  offset="0.25" style="stop-color:#29ABE2"/>
			<stop  offset="0.75" style="stop-color:#5FCAF4"/>
		</linearGradient>
		<polygon fill="url(#SVGID_2_)" points="76.333,158.141 45.156,158.141 90.32,79.066 45.156,0 76.337,0 121.497,79.066 		"/>
	</g>
	<linearGradient id="SVGID_3_" gradientUnits="userSpaceOnUse" x1="117.5698" y1="98.6953" x2="91.101" y2="54.134">
		<stop  offset="0.25" style="stop-color:#0C6DB6"/>
		<stop  offset="0.75" style="stop-color:#234087"/>
	</linearGradient>
	<polygon fill="url(#SVGID_3_)" points="105.91,106.351 113.293,93.427 105.087,79.066 113.293,64.703 105.91,51.778 90.32,79.066 	
		"/>
	<g>
		
			<linearGradient id="SVGID_4_" gradientUnits="userSpaceOnUse" x1="1646.3306" y1="1125.4053" x2="1690.5614" y2="1204.1497" gradientTransform="matrix(-1 0 0 -1 1747.8447 1231.9316)">
			<stop  offset="0.25" style="stop-color:#0C6DB6"/>
			<stop  offset="0.75" style="stop-color:#234087"/>
		</linearGradient>
		<polygon fill="url(#SVGID_4_)" points="86.303,140.678 95.939,123.806 70.387,79.066 95.939,34.323 86.303,17.45 51.108,79.066 		
			"/>
	</g>
	<linearGradient id="SVGID_5_" gradientUnits="userSpaceOnUse" x1="3.7856" y1="99.4316" x2="31.2533" y2="52.0278">
		<stop  offset="0.25" style="stop-color:#29ABE2"/>
		<stop  offset="0.75" style="stop-color:#5FCAF4"/>
	</linearGradient>
	<polygon fill="url(#SVGID_5_)" points="15.587,106.351 8.2,93.427 16.406,79.066 8.2,64.703 15.587,51.778 31.177,79.066 	"/>
	<g>
		
			<linearGradient id="SVGID_6_" gradientUnits="userSpaceOnUse" x1="19.6919" y1="1124.7275" x2="65.0205" y2="1205.6937" gradientTransform="matrix(1 0 0 -1 0 1231.9316)">
			<stop  offset="0.25" style="stop-color:#29ABE2"/>
			<stop  offset="0.75" style="stop-color:#5FCAF4"/>
		</linearGradient>
		<polygon fill="url(#SVGID_6_)" points="35.193,140.678 25.554,123.806 51.108,79.066 25.554,34.323 35.193,17.45 70.387,79.066 		
			"/>
	</g>
</g>
<g>
	<g>
		<path fill="#234087" d="M197.737,17.485l29.578,88.858h-22.086l-4.825-18.276h-24.119l-4.572,18.276h-22.211l29.194-88.858
			H197.737z M180.347,72.705h15.742l-7.873-30.463L180.347,72.705z"/>
		<path fill="#234087" d="M254.605,88.949h33.646v17.394h-53.704V17.485h20.059V88.949z"/>
		<path fill="#234087" d="M317.313,88.949h36.557v17.394h-60.418V92.509l34.911-57.63H294.34V17.485h57.879v14.22L317.313,88.949z"
			/>
		<path fill="#234087" d="M408.71,17.485h22.218l-27.045,55.601v33.257h-20.311V73.215l-27.156-55.73h22.209l15.359,35.291
			L408.71,17.485z"/>
		<path fill="#234087" d="M435.563,84.507c7.998,3.936,15.231,5.973,21.96,5.973c9.52,0,14.345-3.175,14.345-9.525
			c0-5.709-3.933-8.504-14.598-9.894c-17.392-2.417-26.15-11.679-26.15-27.932c0-7.995,2.667-14.596,7.871-19.549
			c5.328-5.074,12.561-7.614,21.835-7.614c10.532,0,19.676,2.54,27.671,7.489l-7.237,14.98c-6.974-3.43-13.707-5.078-20.053-5.078
			c-7.235,0-10.789,3.685-10.789,9.137c0,6.731,4.819,9.015,14.087,10.412c18.03,2.41,27.041,11.295,27.041,26.653
			c0,8.509-2.794,15.361-8.379,20.565c-5.583,5.204-13.834,7.868-24.88,7.868c-11.042,0-20.944-2.79-29.957-8.375L435.563,84.507z"
			/>
	</g>
</g>
</svg>
